<svg version="1.2" xmlns="http://www.w3.org/2000/svg" viewBox="0 0 1000 1000" width="1000" height="1000"><style>.a{fill:#0f0f0f;stroke:#0f0f0f}.b{fill:#0c0c0c;stroke:#0c0c0c}.c{fill:#151515;stroke:#151515}.d{fill:#070707;stroke:#070707}.e{fill:#101010;stroke:#101010}</style><path fill-rule="evenodd" class="a" d="m430 154v1h1v1h1v1h1v1h1v1l-2 2h-2v2h-1l-1-1h-1v-1h-1v-1h-1q0 0-14-12-15-11-25-18-10-6-29-13-19-7-29-9-10 0-20 2l-10 2v-1l-1-1h-2l-2 2h-2v-2h3l2-1 1-1 1 1q2 0 8-2 7-1 6-2-1-1 4-2 3.7-0.7 4.1-0.9 1.3 0.3 11.9 1.9 13 2 18 2 4 0 6 2 1 0 0 1-1 1 0 1 2 1 2 0 0-1 10 2 9 4 9 6 0 2 1 2 2 1 2 0 1 0 5 1 4 2 3 3 0 2 6 3 5 2 4 3 0 2 7 5 7 4 7 5 0 2 2 1 2 0 4 3 2 2 3 4 0 2 4 4 5 2 5 2zm-109.9-51.9q-0.3-0.1-0.1-0.1 0.3 0 0.1 0.1zm-4.1 1.9q0 0-1 0 0 0 0 1 1 0 1-1zm35 4q2 0 1-1-1-1-4-1-2 0 0 1 1 1 3 1zm12 5q0 1 1 1 2 0 0-1-2-1-2 0 0 0 1 0zm5 1q0 0-1 0 0 0 0 1 1 0 1-1zm6 3q0-1-2-1-3 0 0 1 2 1 2 0zm10 6q2 1 0-1-2-1-2 0 0 1 2 1zm10 5q0 0-1 0 0 0 0 1 1 0 1-1zm2 3q1 0 1-1 0-1-1-1-1 0-1 1 0 1 1 1zm10 7q2 1 2 0 0-1-3-2-2-1-2 0 0 1 3 2zm4 3q1 0 1-1 0-1-1-1-1 0-1 1 0 1 1 1zm7 6q1 0 1-1 0-1-1-1-1 0-1 1 0 1 1 1zm9 7q0-1-1-1 0 1 0 1 1 0 1 0zm4 4q1 0 1-1-1-1-2-1-1-1-1 0 0 1 2 2z"/><path fill-rule="evenodd" class="b" d="m434 160v-1l3 3q3 3 3 4 0 0 2 2 2 0 1 1-1 1 2 2 3 1 3 2-1 1 1 3 3 1 6 6 3 4 2 4-1 1 1 3 1 3 4 6 2 3 3 4 1 0 1 2 0 1 3 7 3 5 3 6 0 2 2 2 2 1 2 2 0 0 1 1 1 1 5 10 5 9 6 10 2 0 2 1 0 1-2 1-2 1 0 2 0.9 0.4 2.4 3.1-0.2-0.1-0.4-0.1-1 0 0 1 0 1 0 0 0.5-0.5 0.5-0.7 0.9 1.6 2 3.9-0.2-0.2-0.5-0.2-1 0 0 3 2 3 1 0 0-1.3-0.2-2 1 2.2 2.2 5 5 12 5 22 0 9 1 8 1-1 4 16 3 18 3 22v2q0-2-1-4l-1-2v6l2 2q1 2 2 3 2 2 1 2-1 1 7 3 9 3 9 5 0 1 1 1 2 0 5 0 3 0 15 4 12 4 16 5l5 1h-10l4 2h8q8 0 21 2 14 2 18 3 5 1 6 1 2 0 0 1-1 1 1 1 2 0 5-1 3 0 3 1 0 1-1 1-1 1 6 1 8 2 19 5 11 3 11 5 0 2 2 2h5v2h1v1h-1v1h-1l-2 1h-4q-2-1-12-4-11-3-27-7-16-4-45-8-28-4-42-9-13-5-38-19-26-16-34-21l-8-6v-1h-1v-1h-1v-1h-1v-1h-1v-1l-1-2v-1h1l1 1h2v1h1v1h2v1l6 3q6 4 16 9 9 5 10 6l2 1h1l1-1 2-1h1v-1h1v-5q0-4-3-26-3-22-9-35-6-13-12-24-6-11-10-19-4-7-8-16-6-8-13-18l-7-9h-1v-1h-1v-1h-1v-1q-1 0-1 0v-3h2l1-1q1 0 1 0zm3 4q1 1 1 0 0-1-2-2-1 0-1 1 1 1 2 1zm16 19q2 1 2 0-1-1-2-2-2-1-2 0 1 1 2 2zm7 11q0 0-1 0 0 0 0 1 1 0 1-1zm2 7q1 0 0-1 0-2-1 0 0 1 1 1zm6 9q1 0 0-2-2-3-3-4-2-2 0 2 2 4 3 4zm2 2q0-1-1-1 0 1 0 1 1 0 1 0zm4 6q0 0-1 0 0 0 0 1 1 0 1-1zm1 4q1 0 1-1 0-1-1-1-1 0-1 1 0 1 1 1zm9 14q0 0-1 0 0 0 0 1 1 0 1-1zm6.5 10.3q-0.1-0.1-0.1-0.2 0.1 0 0.1 0.2zm2.3 4.7q-0.2-0.4-0.3-0.8 0.2 0.3 0.3 0.8zm3.2 15q0 1 1 2 0.1 0.3 0.3 0.6-0.2-0.7-0.3-1.6-1-6-1-5 0 2 0 4zm2 6q0-1.7-0.7-3.4 0.7 4.3 0.7 3.4zm3 21q1 2 1-1 0-3-1-3 0-1 0-1-1 0-1 2 0 1 1 3zm2 10q1 2 1-1 0-2-1-4-1-2-1 0 0 3 1 5zm2 13q1 2 1 0 0-3-1-6-1-2-1 2 0 3 1 4zm13 22q0-1-1-1 0 1 0 1 1 0 1 0zm6 2q0-1-2-1-3-1 0 1 2 1 2 0zm23 8q-9-3-9-2 0 1 10 3l10 3-1-1q-1-1-10-3zm91 20q0-1-1-1 0 1 0 1 1 0 1 0zm3.4 0.7q-0.4-0.1-0.4 0.3 0.2-0.2 0.4-0.3zm0.6 0.1q0 0.1 0 0.2 0 1 2 1-1.3-0.8-2-1.2zm-0.6-0.1q0.2 0 0.6 0.1-0.1-0.5-0.6-0.1zm15.6 4.3q0-1-4-1-4 0 0 1 4 1 4 0zm-197-176q0-1 0-1 0 1 0 1zm10 17q0 0 0-1 0-1 0 1zm12 18q0-1 0-1 0 1 0 1 0 0 0 2 0 1 0 0 0-1 0-2zm2 7q0-1 0-1 0 1 0 1zm4 6q0-1 0-1 0 1 0 1zm6 15q0 0 0-1 0-1 0 1zm39 84q-1 0 1 0 3 0 2 0-2 0-3 0zm75 16q0 0 2 0 3 0 1 0-2 0-2 0-1 0-1 0zm24 6q-1 0 1 0 2 0 1 0-1 0-2 0z"/><path fill-rule="evenodd" class="c" d="m297 111h1v1l-8 6q-8 5-14 10-4 5-12 18-8 14-14 38-8 24-8 26v2l-2 6v-7l-2 2v1h-1v-1l1-1v-2q0-2-1-1-1 1-1-1 0-1 3-9 2-9 3-8 0 1 1-1 0-2 1-7 0-5 2-11 2-5 3-4 1 1 2-3 1-3 1-5 0-2 3-8 3-7 5-7 2 0 1-1-1 0 1-4 2-4 6-10 5-6 8-6 2 0 3-3 0.9-2.8 5.4-4.8-0.4 0.5-0.4 1.8-1 1 0 0 2 0 2-1 0-1-1-1 4-3 4-2 1 1 1 0l1-2c0.7 0 2.3 0 3 0q2 0 3-1zm-9 5q0-1-1-1 0 1 0 1 1 0 1 0zm-3 0q-0.3 0.1-0.6 0.2 0.3-0.2 0.6-0.2zm-15 13q0 1 1 1 1-1 2-2 0-1-1-1-1 1-2 2zm-4 6q-1 2 0 2 1 0 2-3 1-2 0-2-1 0-2 3zm-2 5q0 0-1 0 0 0 0 1 1 0 1-1zm-8 12q0 4 2 0 1-3 0-3-1 0-2 3zm-2 6q0 0-1 0 0 0 0 1 1 0 1-1zm-7 20q2-7 1-7-1 0-2 7 0 6 1 0zm-8 22q-1 6 1 0 2-6 1-6-1 0-2 6zm25-61q0-1 0-1 0 1 0 1zm-20 47q0 0 0-1 0-1 0 1z"/><path fill-rule="evenodd" class="d" d="m235 212l1-1c0 1 0 3.1 0 5l1-1v-1h1v-1l2-2v7l-2 16q-2 15-2 33 0 18 5 35 5 16 9 24 4 9 11 21 7 13 12 20 5 8 8 11 3 3 11 13 7 11 14 19 7 10 16 20 8 12 8 12h1l2 2h3v-1h1v-1h1l6-10q7-10 24-26 17-16 28-19 10-3 21-7 11-2 25-8 15-6 22-10 7-2 10-4 4 0 8-1l4-1h6v3h-1v1h-2l-2 2-11 2q-12 4-19 8-7 4-19 9-12 5-28 9-17 4-24 9-6 5-11 11-5 6-11 10-5 4-10 13-6 8-7 14-1 6-1 15 0 10 2 16 2 5 1 18-1 14-3 22-4 7-11 18-7 12-20 32-13 20-14 27-1 7-1 14 0 7 10 25 10 19 15 28 5 8 7 32 2 24 6 31 5 7 16 15 11 10 16 13 5 3 10 9 6 6 14 22 8 16 14 20 5 4 11 9 6 5 10 7 4 2 19 10 14 8 32 16 17 8 32 14 14 5 25 10 11 6 23 7 11 1 15-1 5-2 13-18 8-17 9-18l1-2v-5h-5q-5 1-7 1-3 0-16 2-14 0-24-1-11-1-25-5-14-4-33-11-18-8-51-20l-33-11v-1l-2-2v-9h1v-1h1v-1h7q6 0 22 6 16 6 33 12 16 6 32 12 16 6 38 12 22 6 36 5 15-1 23-6 9-6 12-11 3-6 7-20 4-13 6-24 2-11 2-17v-7h-3v1h-1v1c0 0-2.7 2.7-4 4q-2 2-12 6-10 6-26 6-17 0-26-2-8-2-21-6-13-6-27-12-14-6-40-16-26-10-36-14-10-4-24-10-14-6-18-10l-5-2v-1h-1v-9h1l2-2h3l2 1q1 1 26 11 25 10 48 19 24 9 40 16 15 7 30 14 15 7 26 9 10 2 22 2 13 0 22-4 9-4 14-13 4-9 7-20 3-11 3-27 0-15 0-18-2-4-4-7-3-3-8-1-4 2-14 2-10 0-14 0-5-2-18-6-14-4-28-12-13-8-25-15-13-8-30-18-18-11-30-20-13-10-21-17l-9-6v-1h-1v-1l-2-2v-5h1v-1h8l8 6q9 5 13 10 5 4 12 10 8 6 13 9 5 2 21 11 15 10 33 20 18 12 33 17 14 5 22 7 7 2 14 2 7 0 12-4 6-4 13-11 7-7 13-19 6-12 15-45 9-33 8-41-1-8-4-13-4-5-17-13-12-8-12-8h-1v-1h-1v-1h-6v4q0 3 2 6 2 2 2 3v7h-5v-1h-1v-1h-1v-1h-1v-1q0 0-4-4-2-3-12-12-10-10-21-19-12-9-28-21-17-13-30-20-13-8-29-12l-17-4h-3l-2-2-1-2v-1h1l2 1 16 1q15 1 34 11 20 9 24 12 4 4 10 4 5 0 8-2 2 0 12 0 11 0 28 11 18 11 29 20 11 9 18 17 7 9 11 20 6 11 6 24 0 14-6 40-6 27-14 46-6 20-9 41-3 21-2 35 1 14 3 20 2 5 8 14 6 10 13 13 7 3 15 3 9 0 14-5 4-5 12-20 8-15 14-27 4-11 12-22 8-12 22-34 14-22 16-34 2-11 2-16 0-5 0-10v-13l1-1v-1h2v1l1 1v-2l1 1 1 2v3l2 11q0 10 0 16v10l-2-8v6q0 6-1 11-1 6-3 10-2 3-4 4-2 0-1 1 1 1-1 3-1 1-2 1-2 0-2 3-2 3-6 9-4 6-6 7-2 0-1 1 1 1-4 8-4 6-5 8 0 1-2 1-2 0-2 1 0 1-1 4-1 2-6 12-5 10-6 9-1-1-1 0-1 1 0 2 1 0-2 9-3 9-5 9-1 0-1 1 0 1 0 2 0 2-1 1-1-1-1 2-1 3 0 3 1 0-2 6-2 7-4 9 0 2-1 5 0 2-1 2-2-1-6 4-5 4-8 6-4 2-6 2-3 0-2-1 1-1-10-1-11-2-12-2-1 0 0-1 0-1-2-2-3-1-6-2-2-1-4-2-2-2-2-3v-1h1v-1h-2v1h-1v1l-2-2v3l-2 7q-2 7-2 14v6l-2 4v-11l-1 5-1 4c0 1.3 0 5.7 0 9v5q0 9-2 11 0 2-1 1-1-1-1 2 0 2 0 5 0 2-1 2-1 0-1 2 0 1 0 5 0 3-13 33-13 30-16 37-4 7-6 7-1 0-4 4-3 4-4 5-1 0-1-1-1-1-6 1-5 1-5 2 0 1-7 0-8 0-6 0 1 0-3 0-5 0-6-1-1-1-3-1 1 0-2-2-4 0-2 0 1 2-2 0-3 0-3-2 0 0-1-1-2-1-2 0 0 1-4 0-4-1-4-3 0-2-1-2c-0.7 0-1.7 0.7-3 0q0 0-1 0h-3q-1 0-1-1-1-1-2-2-1-1-9-3-8-2-8-2 1 0-7-2-8 0-7-1 2-1 0-1-2-2-3-1-1 1-1-1-2-2-4-3-3-1-5-2-3 0-6-1-4 0-4-2 0 0-2-1-3-1-6-2-4-1-4-2-1-1-2-2-1-1-5-3-4-2-2-2 2 0-4-2-5-2-4-1 1 1 0 1-2 0-6-3-3-2-3-3 1-1-2-2-2 0-2-1 1-1 0-3-1-1-4-2-3-2-7-2-4-1-4-3 0-1-5-3-5-2-5-4 0-2-2-2-1 0-4-6-4-6-7-16-4-10-5-11 0-1-1-1-1 0-1-1 0-1-5-5-4-4-5-7-1-3-4-3-2 0-5-3-3-3-4-5-1-2-6-4-4-2-5-5-2-2-4-3-2-2-5-6-3-4-2-4 1 0-1-1-3-1-6-7-4-7-3-7 1-1 0-1-1 0-3-4-2-3-2-22 0-18-3-26-3-7-2-7 1-1-1-2-1-1-2-3-1 0-6-9-4-8-5-11-1-4-1-6-1-2-2-4-2-1-4-6-2-5-2-16 0-12 3-20 3-8 4-8 1 1 1 0 0-2 0-5 0-3 4-8 3-5 9-14 7-10 8-10 1-1 3-4 2-3 8-10 4-7 7-9 2-2 3-3 0-1 1-7 1-6 1-16 0-9-1-18-1-9-2-8-1 0-3-4-2-5-4-6-2-1-16-19-13-17-14-20 0-3-2-3-2-1-2-4 0-2-2-2-3-1-6-6-1.9-3.8-3.8-8.4 0.5 0.4 1.8 0.4 1 1 1 0-1-1-2-2-1 0-1 1-2-4-4-5 0-2-2-3-2-1-4-7-3-5-5-6-1 0-2-4-1-5-3-6-3 0-6-5-2-4-3-8-1-4-2-5-1-2-3-4-2-2-2-6-2-4-3-4-1 1-2-4-1-6-1-6 0-1 0-1-2 0-4-9l-2-8v-3q0 2 1 3l1 1v-3l-1-2q-1-2-1-5-2-3-2-1 0 1-1 0-1-1-1-7 0-6 0-4 0 2 0-5v-7c0-2.7 0-1.3 0-2q0-1 1-15l1-15v14l1-5 1-4v-4q0-3 2-8v-8q0 2-1 4l-1 3v-3q0-4 2-9v-5zm284 670l-1 1q0 0 1 1c0.7 0 1-1 1-1zm-283-570q0-2-1-4-1-1 0 4l1 4q0-2 0-4zm4 14q0 0 0-1 0 0-1 0 0 1 1 1zm6 10q0-1-1-1-1 0-1 1 1 2 2 0zm0 4q1 0 1-1-1 0-1 0 0 1 0 1zm2 2q0 0 0-1 0 0-1 0 0 1 1 1zm7 16q1 0 1-1 0-1-1-1-1 0-1 1 0 1 1 1zm3 4q1 0 1-1 0-1-1-1-1 0-1 1 0 1 1 1zm6 10q1 0 1-1-1 0-1 0 0 1 0 1zm6 6q0 0 0-1 0 0-1 0 0 1 1 1zm0 2q1 0 1-1-1 0-1 0 0 1 0 1zm4 4q0 0 0-1 0 0-1 0 0 1 1 1zm6 11q0.1 0.3 0.2 0.6-0.2-0.3-0.2-0.6zm6 8q1 0 0-2 0-2-1-2-1 0-1 2 1 2 2 2zm12 17q1 0 1-1 0-1-1-1-1 0-1 1 0 1 1 1zm5 6q1 0 1-1 0-1-2-1-1-1-1 0 1 1 2 2zm2 3q1 0 1-1 0-1-1-1-1 0-1 1 0 1 1 1zm4 5q1 0 1-1 0-1-1-1-1 0-1 1 0 1 1 1zm5 7q1 0 0-2 0-2-1-2-1 0-1 2 1 2 2 2zm252-2q-1 1-2 2v2h-1v1h1v3l2 2 16 12q17 13 20 13 3 2 12 2 10 2 14 4c2.7 1.3 6 3 6 3l1 1h3l2-2v-5h-1v-1h-1v-1h-1v-1h-1q-1 0-10-8-9-6-26-17-17-11-24-11h-8q-1 0-2 1zm-250 5q1 0 1-1 0-1-1-1-1 0-1 1 0 1 1 1zm5 6q1 0 1-1 0-1-2-1-1-1-1 0 1 1 2 2zm5 6q1 0 1-1-1-1-2-1-1-1-1 0 0 1 2 2zm6 7q1-1 0-1-1 0 0 1zm5 15q-1-4 0 10 1 14 2 12l1-3-1-7q-1-8-2-12zm-1 29q0 2 1 1 1-1 1-3 0-2-1-1-1 1-1 3zm-6 15q0 1 1 1 1 0 1-1 0-1-1-1-1 0-1 1zm-2 4q-1 2 0 2 1 0 2-2 0-2-1-2-1 0-1 2zm-3 4q0 1 1 1 1 0 1-1 0-1-1-1-1 0-1 1zm-2 3q0 1 1 1 1 0 1-1 0-1-1-1-1 0-1 1zm-1 4q0-1-1-1-1 0-1 2 2 0 2-1zm-10 8q0 1 1 1 1 0 1-1 0-1-1-1-1 0-1 1zm0 3q0 0 0-1 0 0-1 0 0 1 1 1zm-2 2q1 0 1-1-1 0-1 0 0 1 0 1zm-2 2q0 1 1 1 1 0 1-1 0-1-1-1-1 0-1 1zm-2 3q0 1 1 1 1 0 1-1 0-1-1-1-1 0-1 1zm-2 4q-1 1 0 1 2-1 2-2 0-1-1-1-1 1-1 2zm467 5q1 2 1-1 0-3-1-5-1-1-1 2 0 2 1 4zm-472 0q-1 3 1 2 2-2 2-3 0-1-1-1-1 0-2 2zm-3 6q1 0 1-1-1 0-1 0 0 1 0 1zm-2 3q-1 2 0 2 1 0 2-2 0-2-1-2-1 0-1 2zm-5 16q2-6 1-6-1 0-3 13-3 14-2 18 1 4 1 6v3h1q0 1 0-3l-1-4 1-10q1-11 2-17zm481 19q0-5 0-4 0 1-2 7l-1 3q1-2 3-6zm-18 23q-1 2 1 1 1-1 2-2 0-1-1-1-1 1-2 2zm-458 8q1-1 0-1-1 0 0 1zm453 0q0 1 1 1 1 0 1-1 0-1-1-1-1 0-1 1zm-448 12q1 0-1-3-2-4-1 0 1 3 2 3zm439 1q-3 6 0 4 2-3 4-6 1-3 0-3-1 0-4 5zm-436 4q1 0 1-1 0-1-1-1-1 0-1 1 0 1 1 1zm419 26q1 0 4-5 3-5 2-6 0-1-3 5-4 6-3 6zm-409 0q0 8 1 22l1 14-1-22q-1-21-1-14zm404 12q0 0-1 0 0 0 0 1 1 0 1-1zm-2 2q0 0-1 4 1-3 1-3 0-1 0-1zm-12 32q2-1 3-6 1-4-1 1-3 5-2 5zm-382 0q0 0 0-1 0 0-1 0 0 1 1 1zm2 5q1 0 0-2 0-2-1-2-1 0-1 2 1 2 2 2zm372 7q2-2 4-5 0-3-3 3-4 5-1 2zm-369-3q1 0 1-1 0-1-1-1-1 0-1 1 0 1 1 1zm323 3q1 0 1-1-1 0-1 0 0 1 0 1zm-14 8q0-3-1 2l-1 5 1-3q1-2 1-4zm-303-3q1 0 1-1 0-1-1-1-1 0-1 1 0 1 1 1zm355 1q1 0 1-1-1 0-1 0 0 1 0 1zm-341 10q0-1-3-1-2-1 0 1 3 1 3 0zm20 19q1 0 1-1 0-1-1-1-1 0-1 1 0 1 1 1zm6 6q1 0 1-1 0-1-1-1-1 0-1 1 0 1 1 1zm3 3q0 0 0-1 0 0-1 0 0 1 1 1zm5 13q1 1 1 3 0 1 1 1 0 1 0 1 1 0-1-4-2-5-2-4 0 2 1 3zm3 7q1 0 1-1-1 0-1 0 0 1 0 1zm2 2q0 0 0-1 0 0-1 0 0 1 1 1zm0 2q1 0 1-1-1 0-1 0 0 1 0 1zm237 2q-1 1-1 2 0 2 2-2 0-1.3 0-2 0 0-1 2zm-1 6q0 0 0-1 0 0-1 0 0 1 1 1zm-3 8q1-7-1 0l-3 8h1q1 0 3-8zm-222-1q0 1 1 1 1 0 0-1-2-1-2 0 0 0 1 0zm11 8q1 0 1-1 0-1-1-1-1 0-1 1 0 1 1 1zm206 2q0 0-0.3 1.7 0.3-0.7 0.3-0.7 0 0 0-1zm-0.3 1.7q-0.3 0.5-0.7 1.3-1 1-1 2 0 1 0 2 0 2 1-2 0.4-2.1 0.7-3.3zm-187.7 7.3q0 0 0-1 0 0-1 0 0 1 1 1zm182 9q2-8 0-1-0.3 1.1-0.5 2.1 0.2-0.5 0.5-1.1zm-0.5 1.1q-3.4 6.8-2.5 5.9 0.9 0 2.5-5.9zm-163.5-0.1q1 0 1-1-1 0-1 0 0 1 0 1zm10 6q0-1-2-1-1 1 0 1 2 1 2 0zm148 6q1 0 1-1-1 0-1 0 0 1 0 1zm-4 8q4-7 3-7-1 0-4 5l-3 6 1 2q0 2 3-6zm-14 20q0 0 0-1 0 0-1 0 0 1 1 1zm-329-538q1 0 1 0-1 0-1 0zm26 38q1 0 1 0-1 0-1 0zm8 12q1 0 1 0-1 0-1 0zm1 2q0 0 1 0 1 0-1 0zm42 54q0 0 1 0 1 0-1 0zm-41 166q1 0 1 0-1 0-1 0zm1 2q0 0 1 0 1 0-1 0zm5 14q1 0 1 0-1 0-1 0zm5 10q0 0 1 0 1 0-1 0zm4 6q0 0 1 0 1 0-1 0zm6 10q0-2 0-1 0 1 0 3 0 1 0 1 0-1 0-1 0 0 0-2zm418 0q0 0 0-1 0-1 0 1zm-12 24q0 0 0-1 0-1 0 1zm-28 52q0 0 1 0 1 0-1 0zm-4 2q0 0 1 0 1 0-1 0zm-56 38q0-2 0 2 0 3 0 2 0-2 0-4zm-239 32q1 0 1 0-1 0-1 0zm9 8q0 0 1 0 1 0-1 0zm28 20q0 0 1 0 1 0-1 0zm157 44q1 0 1 0-1 0-1 0z"/><path fill-rule="evenodd" class="e" d="m667 377l4 1q4 0 3 0-2 0 3 0 5 0 5 2 0 2 6 2 6 1 6 2-1 2 1 1 2 0 5 3 2 2 3 3 1 0 1 3 0 2 1 1 1-1 1 1 1 2 4 3 2 1 6 8-1 0 1 4 1 4 1 0-0.1-0.5-0.3-1 2.5 4.2 3.3 5 0 1-1 1-1 0 0 1 2 1 4 1 1 1 3 4 3 3 5 7 2 5 4 8 1 3 0 3-1 0 1 2 3 1 5 9 4 8 4 11v2l-1-2-1-1v4l1 1v2h-1v1h-1v-1h-1v-2l-1-1q-1-1-5-9-4-9-15-26-11-18-17-26-5-8-12-13-7-5-16-7l-10-2h-2q-1 0-1-1h1l2-1h1v-1h1v-1h-1zm25 7q0-1-3-1-3-1 0 1 3 1 3 0zm8 8q1 0 1-1-1-1-2-1-1-1-1 0 0 1 2 2zm17.7 18q-0.8-1.3-1.7-3 0.9 0 1.7 3zm6.3 12q0-1-1-1 0 1 0 1 1 0 1 0zm4 7q1 0 1-1-1-1-3-3-2-2 0 1 1 3 2 3zm4 6q1 0 1-1 0-1-1-1-1 0-1 1 0 1 1 1zm2 1q0 0-1 0 0 0 0 1 1 0 1-1zm4 8q0-1-1-1 0 1 0 1 1 0 1 0zm2 4q1-1 0-1-1 0 0 1zm3 10q1 2 1 0 0-2-1-3-1-1-1 1 0 1 1 2zm-33-56q0 0 0-1 0-1 0 1zm24 37q0-1 0-1 0 1 0 1zm4 7q0 0 0-1 0-1 0 1z"/><path fill-rule="evenodd" class="a" d="m769 552v1h-2v1l-1 1v9l-1-4-1-3v-1q0-2-2-10-2-7-11-40l-9-33v-5h1v1h1v-1h1l1-2q0-1 2 3 2 4 2 13 0 8 1 8 1-1 5 12 5 12 6 12 0 0 3 12 3 13 4 19 0.7 4 0.9 4.9-1.9-1.8-1.9 0.1 0 2 1 2zm0.9-2.1q0 0 0.1 0.1 0 0.3-0.1-0.1zm-15.9-50.9q-2-2 0 3 0-1.7 0-3zm2 9q0-1-1-1 0 1 0 1 1 0 1 0zm2 4q0-1-1-1 0 1 0 1 1 0 1 0zm1 5q1 1 1-1 0-2-1-2 0 0 0-1-1 0-1 1 0 2 1 3zm3 4q-2-2 0 3 0-1.7 0-3zm5 24q-0.1 0-0.2 0 0.2 0.4 0.2 0zm-0.2 0q-0.2-0.6-0.8-3 0 1 0 2 0 0.9 0.8 1zm-18.8-71q0-1 0-1 0 1 0 1 0 0 0 2 0 3 0 2 0-2 0-4zm2 18q0 0 0-1 0-1 0 1zm6 18q0 0 0-1 0-1 0 1z"/></svg>