<svg version="1.2" xmlns="http://www.w3.org/2000/svg" viewBox="0 0 1000 1000" width="1000" height="1000"><style>.a{fill:#1f1f1f;stroke:#1f1f1f}.b{fill:#070707;stroke:#070707}.c{fill:#fdfdfd;stroke:#fdfdfd}.d{fill:#0c0c0c;stroke:#0c0c0c}</style><path fill-rule="evenodd" class="a" d="m619 294l1 1v7h-3v-1h-1v-3l-1-1-1-1v-2q0-1-2-4-2-4-8-8l-5-4-3-2q-2-1-2-3 0-1 4 0 5 1 9 5 5 3 8 8 3 6 4 8z"/><path fill-rule="evenodd" class="b" d="m731 118v-2l3 1q2 1 4 3 2 2 6 6 5 4 8 10 4 5 7 20 3 14 3 30 0 16-2 28-2 13-8 26-6 14-22 36-16 23-20 27-3 5-4 5-1 0-10 10-8 10-12 14-5 4-11 10-5 6-7 9-1 3-2 3-2 1-2 2 0 1-4 4-4 4-14 12-10 8-8 14 0 6 2 6 1 1 4 8 2 7 6 15 4 8 10 26 5 18 6 18 1 0 3 13 1 13 3 40 0 28-2 44-2 16-1 58 1 41 1 74 2 32 0 38 0 7-3 14-2 6-4 8-1 2-2 4 0 1-2 2-3 1-5 3-2 3-8 5-6 2-14 3-7 1-13 1h-7v5q0 4 0 17 0 12-1 28-1 17-5 24-4 6-8 12-6 5-12 8-7 2-18 2-11 0-19-2-8-3-9-4 0-2-4-3-4-1-5 3-1 3-2 3-1 0-1 1 0 2-1 2-1 0-1 2 0 1-1 1-1 0-3 5-1 5-4 7-2 2-12 8-10 5-18 6-8 1-12-1-4 0-14-5-9-4-9-5 0-1-1-1-1-1-5-5-5-4-6-8-2-3-3-3-1 0-4-9-3-9-14-9-10-1-20-4-10-3-10-5 0-1-4-4-4-2-6-6-2-4-3-4-1 0-3-4-1-3-2-3-1 0-4-9-4-9-5-9-1 0-6-17-5-17-6-18-2-1-7-24-6-24-12-55-6-31-7-44l-1-12h-3l-3 1h-1q0 0 0 1-1 0-12 6-11 6-21 7-10 0-18-2-9-2-15-6-6-4-9-9-2-5-3-12-1-7 1-11 2-4 6-11 6-7 7-10 1-3 2-3 1 0 5-4 5-4 6-6 1-3 2-3 2-1 5-4 3-3 5-6 1-3 2-3 1 0 6-6 4-4 8-15 5-10 6-10 1 0 2-4 2-4 6-21 4-17 5-17 1 0 7-27 5-26 6-26 1 0 2-4 1-5 2-5 1 0 4-7 2-6 4-6 1-1 1-2 1-1 4-4 4-4 10-8 6-5 6-6 1-1 4-4 3-2 9-6 6-3 6-4 0-1 6-5 6-5 8-7 1-3 2-3 2-1 4-2 1-1 8-11 6-10 7-10 1 0 6-8 5-7 6-7 1-1 3-5 1-4 2-4 2 0 2-1 0-1 8-11 8-11 10-13 2-2 7-11 5-8 8-11 3-3 6-5 3-2 8-4 4-2 11-6 6-4 17-8 10-4 13-7 2-3 4-3h1l1-1 2-1h4v4h-1l-1 1-1 1h-2l-21 12q-22 12-29 17-7 5-17 19-10 14-18 24-9 12-13 17-5 5-11 17-8 11-20 24-13 12-24 22-11 8-21 18-9 10-13 16-4 5-8 24-4 20-12 48-6 27-14 41-6 14-13 23-6 10-21 24-14 16-17 20-3 4-3 14 0 9 3 11 2 3 7 5 5 2 16 1 11-1 23-6 12-5 18-12 7-6 9-49 4-43 4-46 0-4 1-8l1-4v-1h1v-1h2v1h1v67q-2 65 0 79 2 14 16 66 12 52 16 64 4 12 8 19 3 8 8 14 5 6 12 11 6 5 10 5 4 2 11 2h7v-1l1-1 1-1v-5q0-6-2-14 0-9-3-58-3-48-3-118v-71h1v-1h7v1l1 1 1 1 2 70q2 70 4 107 2 37 6 66 4 28 8 40 4 12 8 17 4 5 12 7 8 4 16 4 8 0 14-4 5-4 9-9 3-6 7-17 4-12 0-84-4-71-4-94-2-23-1-56 1-34 3-48 4-15 5-18 1-4 2-6l1-1v-2h1v-1h7v8q0 6-4 21-2 15-2 49 0 34 4 99 4 65 6 86 2 21 5 29 3 8 8 12 5 4 9 6 5 2 14 1 8-1 11-3 3-2 7-6 4-5 5-11 1-6 1-60 0-54 0-89-2-36-2-48-2-13-1-42 1-29 3-37 2-7 6-16 4-8 4-9v-1h1v-1h1v-1h1v-1h5v1h1v1h1v8q0 2-4 12-4 10-6 26-2 15 2 91 4 76 6 81 0 4 3 6 2 2 11 3 10 1 14-1 4-2 8-8 4-6 6-13 2-7 2-47 0-39 0-68-2-29 0-42 2-12 2-52 0-40-6-62-6-22-13-39-7-17-11-27-2-10-3-20l-1-9 1-1 1-2 1-1h1l2 4q1 5 5 4 3-1 11-8 8-7 20-18 11-11 28-29 16-17 34-42 18-25 22-34 4-10 6-26 4-16 3-30-1-15-5-30-6-14-8-18-2-4-4-5-2-1-3-1h-1v-1h-1q0-1-1-2l-2-1q0-1-1-2z"/><path fill-rule="evenodd" class="c" d="m731 120h1l2 1q1 1 1 2h1v1h1q1 0 3 1 2 1 4 5 2 4 8 18 4 15 5 30 1 14-3 30-2 16-6 26-4 9-22 34-18 25-34 42-17 18-28 29-12 11-20 18-8 7-11 8-4 1-5-4l-2-4h-1l-1 1-1 2-1 1 1 9q1 10 3 20 4 10 11 27 7 17 13 39 6 22 6 62 0 40-2 52-2 13 0 42 0 29 0 68 0 40-2 47-2 7-6 13-4 6-8 8-4 2-14 1-9-1-11-3-3-2-3-6-2-5-6-81-4-76-2-91 2-16 6-26 4-10 4-12v-8h-1v-1h-1v-1h-5v1h-1v1h-1v1h-1v1q0 1-4 9-4 9-6 16-2 8-3 37-1 29 1 42 0 12 2 48 0 35 0 89 0 54-1 60-1 6-5 11-4 4-7 6-3 2-11 3-9 1-14-1-4-2-9-6-5-4-8-12-3-8-5-29-2-21-6-86-4-65-4-99 0-34 2-49 4-15 4-21v-8h-7v1h-1v2l-1 1q-1 2-2 6-1 3-5 18-2 14-3 48-1 33 1 56 0 23 4 94 4 72 0 84-4 11-7 17-4 5-9 9-6 4-14 4-8 0-16-4-8-2-12-7-4-5-8-17-4-12-8-40-4-29-6-66-2-37-4-107l-2-70-2-2v-1h-7v1h-1v71q0 70 3 118 3 49 3 58 2 8 2 14v5l-2 2v1h-7q-7 0-11-2-4 0-10-5-7-5-12-11-5-6-8-14-4-7-8-19-4-12-16-64-14-52-16-66-2-14 0-79v-67h-1v-1h-2v1h-1v1l-1 4q-1 4-1 8 0 3-4 46-2 43-9 49-6 7-18 12-12 5-23 6-11 1-16-1-5-2-7-5-3-2-3-11 0-10 3-14 3-4 17-20 15-14 21-24 7-9 13-23 8-14 14-41 8-28 12-48 4-19 8-24 4-6 13-16 10-10 21-18 11-10 24-22 12-13 20-24 6-12 11-17 4-5 13-17 8-10 18-24 10-14 17-19 7-5 29-17l21-12h2l2-2h3l2-2h2l19-8q19-8 29-12 10-4 12-5 2-1 0-5 0-4 8-16 10-11 16-17 6-6 14-16 8-9 17-16 9-7 18-12 9-5 14-7 5-2 19-1 13 1 20 3 8 4 9 4zm-116 166q-3-5-8-8-4-4-9-5-4-1-4 0 0 2 2 3l3 2 5 4q6 4 8 8 2 3 2 4v2l2 2v3h1v1h3v-7l-1-1q-1-2-4-8z"/><path fill-rule="evenodd" class="d" d="m731 115v3q1 1 1 2h-1q-1 0-9-4-7-2-20-3-14-1-19 1-5 2-14 7-9 5-18 12-9 7-17 16-8 10-14 16-6 6-16 17-8 12-8 16 2 4 0 5-2 1-12 5-10 4-29 12l-19 8h-2l-1 1-1 1h-2v-4h-1l2-1 2-1h2l2-1q1-1 2-2 0-1 16-7 16-6 17-8 1-2 6-6 6-5 19-20 14-16 16-18 3-2 2-3 0-1 3-3 2-1 4-4 2-3 3-3 1 0 5-6 5-5 9-9 5-3 5-4 0-1 7-5 7-4 16-9 9-6 15-7 6-1 20-1 14 2 22 4 7 2 7 3z"/></svg>