<svg version="1.2" xmlns="http://www.w3.org/2000/svg" viewBox="0 0 1000 1000" width="1000" height="1000"><style>.a{fill:#141414;stroke:#141414}.b{fill:#111;stroke:#111}.c{fill:#0e0e0e;stroke:#0e0e0e}.d{fill:#070707;stroke:#070707}</style><path fill-rule="evenodd" class="a" d="m394 100v-1l11 3q11 2 9 3-2 1 4 1 6 0 16 6 11 6 18 10 6 4 5 5-1 1 1 2 0 1 1 0 0-1 1-1 1 0 1 1 0 1 2 2 1 1 2 1v1h1v1h2v1l1 1v1h-1v3l-1 1v1h-1v-1h-1v-1h-1v-1h-1v-1h-1v-1h-1q0-1-2-3-2-2-19-12-18-10-31-13l-13-4h-3l-2-1h-3l3-1q3-1 2-1 0 0 0-1zm28 8q0-1-1-1 0 1 0 1 1 0 1 0zm4 1q0-1-2-1-1 0 0 1 2 1 2 0zm14 7q0 0-1 0 0 0 0 1 1 0 1-1zm4 4q1 1 1 0-1-1-2-2-1 0-1 1 0 1 2 1zm5 4q2 1 2 0 0-1-2-2-2 0-2 1 0 1 2 1zm17 12q1 1 1 0-1-1-2-2-1 0-1 1 0 1 2 1zm-68-34q-1 0 2 0 2 0 3 0 1 0-1 0-2 0-4 0zm32 10q0 0 0-1 0-1 0 1zm2 1q0-1 0-1 0 1 0 1zm20 13q0 0 0-1 0-1 0 1z"/><path fill-rule="evenodd" class="b" d="m393 99h1v1q0 1-1 1l2 1q1 2 1 2 0 0 0 1h-1v-1q-1 0-4 0c-3.3 0-13 0-15 0q-3 0-18 2l-15 2h-2v1h-2v-1h-1v-2l1-1v-1h2l1-1 2-1 4-1q5-1 24-1 20 0 21-1zm-51 7q0-1-1-1 0 1 0 1 1 0 1 0zm10-4q2 0 1 0-1 0-3 0-2 0-1 0 1 0 3 0zm-6 2q0 0 0-1 0-1 0 1z"/><path fill-rule="evenodd" class="c" d="m469 136l9 7q8 7 9 8 1 0 5 6 5 7 6 7 2 1 2 2-1 2 0 2 1 0 0 1 0 1 2 2 1 0 2 2 1 3 0 3-1 0 0 1 0 1 1 0 1 0 3 7 3 6 2 6 0 1 0 1 2 0 2 2 2 2 2 3v1l2 2v2h-2v1l-1 2v1h-2v-1l-1-2v-1h-1v-1h-1q0-1-6-14-4-12-11-20-7-8-14-14l-7-6v-1h-1v-1h-1q0 0 0-1l-1-1v-1l1-1v-3h1zm5 8q1 0 1-1-1-1-2-1-1-1-1 0 0 1 2 2zm9 8q1 0 1-1 0-1-1-1-1 0-1 1 0 1 1 1zm4 2q1 1 1 0 0-1-2-2-1 0-1 1 1 1 2 1zm3 4q1 0 1-1 0-1-1-1-1 0-1 1 0 1 1 1zm3 4q1 0 1-1 0-1-1-1-1 0-1 1 0 1 1 1zm5 4q0 0-1 0 0 0 0 1 1 0 1-1zm4 8q0-1-1-1 0 1 0 1 1 0 1 0zm4 8q0-1-1-1 0 1 0 1 1 0 1 0zm7 17q1 0 0-3-1-3-2-3-1 0 0 3 1 3 2 3zm-43-59q0 0 0-1 0-1 0 1z"/><path fill-rule="evenodd" class="d" d="m338 106v2q-1 0 0 1h2l-9 11q-9 11-17 28-6 17-8 27-2 10-1 25 1 14 5 32 4 18 12 38 6 21 12 32 4 12 11 22 7 11 25 30 18 19 18 19v1h6v-1l1-1q1-1 7-12 7-10 19-26l11-16h1v-1h1v-1h1v-1h1v-1h6v2l-2 2v2h-1v1h-1l-8 13q-10 12-16 24-8 12-14 31-6 19-7 20l-1 1v7h2l1-1h2v-1h1v-1h1v-1h1l6-6q7-5 9-7 2 0 5-1l3-1h7l1 2v2h-2l-2 2-6 3q-6 3-11 8-6 4-9 11-3 8-5 17 0 9 0 23 0 15-5 35-5 20-6 32-1 12-9 31-6 19-13 28-7 10-15 24-8 15-10 23 0 8 2 14 4 6 9 10 6 3 18 5 12 2 23 0 10-2 18-6 8-4 15-18 7-13 9-22 2-9 4-14 0-5 1-6 1 0 7-1 5-1 11-9 6-8 10-12 5-4 13-17 8-13 12-23 4-10 4-16 0-7 0-8 0-1-1-2l-1-1v-5h4l3 2q3 4 5 3 3-1 8-6 4-5 10-9 6-4 10-6 3 0 19 0 16 0 23 3 7 3 8 3h1v1h1v1h5v-3l-1-3v-2q0-1-3-6l-3-5v-1l-2-2v-2h1v-1h1v-1h1l2 2h1v1h1v1h1v2h1q0 0 4 7 5 7 12 37 7 29 9 37 2 8 1 11-1 4-4 14-3 10-1 24 0 15 4 26 4 10 10 18 5 8 11 11 6 3 12 4 6 1 9-1 4-2 9-24 5-23 12-42 7-18 10-28 3-10 4-24 1-14-2-35-3-21-5-53-4-31-7-40-3-9-9-18-6-10-15-18-10-8-17-14-7-6-15-13-9-8-39-27-31-18-43-27-11-9-16-12-5-3-7-5-3-3-4-3-1-1-6-5l-6-6h-1v-1h-1v-1h-1v-1h-1v-1l-1-2v-1h1l1 1h1v1h1v1h1v1h1v1h1l5 4q5 4 5 5h1v1h1l3 1h3v-21q0-18-2-28-2-11-6-21l-2-10h-1v-1h-1v-2h2v2h1v1h1v1l2-2h1v-1h1v1l4 10q4 11 6 24 4 14 4 34 1 19 3 20 2 0 2 1 0 1 3 2 2 1 13 8 11 7 12 8 1 0 1 1 0 1 10 6 9 4 9 6-1 1 0 2 1 1 1 0 1 0 16 8 4.1 2.3 8.3 5-0.2 0-0.3 0-1 0-1 1 0 1 1 1 1 0 1-1 0-0.4-0.1-0.6 9.8 6.4 20.1 14.6 15 12 15 13 0 1 1 1 1 0 1 1-1 1 1 3 3 1 3 2 0 2 4 3 3 1 5 3 2 1 1 2 0 2 1 1 1 0 2 1 0 1 1 2 2 1 2 2 0 2 3 4 3 1 6 6 3 5 4 6 1 1 2 2 1 0 5 9 4 9 3 9-1-1-1 0 0 1 2 1 1 0 1 2l1 2v5l-1-2q-1-1-1-3v15l2 4v-5h-1v-1h1q0-1-1-4v-3h2v6q1 6 1 10v4l-1-3-1-2v4q0 4 1 3 1-1 1 4v5l-1-2-1-3v10l1-1q1 0 1-2 0-1 1 11 1 12 1 11 0 2 0 5v3l2-6 2 9q2 9 2 19 0 10 0 15c0 6 0 15 0 17q0 2-1 5l-1 3v5l1-2q1-2 1-4v7q0 2-3 10-3 9-3 8 0 0-1 2-1 2 0 1 1-1-1 6-2 7-3 7-1-1-1-2-1 0-1 2 0 1 1 1 1 0-4 13-4 13-5 13-1 1-1 2 0 1-1 1-1 1 0 4 1 2 0 2-1 0-1 1 0 1 0 2-1 1-2 5 0 5-2 5-1-1 0 0 0 0.4-0.2 2.3-0.2-0.3-0.8-0.3 0 1 0 1-1 0-1 2 0 3 1 2 0.2-0.4 0.3-0.7-0.1 1.2-0.3 2.7-1 7-3 11-2 4-7 9-1.8 1.4-4 2.3 0-0.1 0-0.3 0-1-1-1-1 0-1 1 0 0.6 0.4 0.9-3.6 1.1-8.4 1.1-2.4 0-4.6-0.2-5.3-1.7-4.4-0.8 0.3 0.1 0.6 0.3-4.1-0.8-7.6-2.3-7-3-9-7-2-3-4-4-1 0-5-4-3-4-4-6-1-3-1-3-1 1-3-2l-3-3v-2h-1v-1h-1v2l-1 1q-1 1-2 4-1 3-2 3-1 0-1 1 0 1-2 1-1 1 0 1 1 0 0 1-2 0-2 1 0 1 1 1 1 1 0 1-1 0-3 3-1 3-2 3-1 0-1 1-1 1-2 2-2 1-2 1 0 2-3 4-4 3-12 5-9 1-18 1-10-2-20-6-9-4-12-6-4-3-4-4-1 0-3 0-2 0-5-3l-4-3h-2l-1 3q-1 3-1 1v-1l-2 11q-2 10-2 9 0-1 0 3-2 5-2 4 0-2-1-1-1 1-1 3v4q0-1 1-2l1-1v4l-1 1q0 2-1 2-2 0-2 1 1 1 0 4 0 0.2 0 0.5-0.2-1.2-1 0.5-1 1 0 1 0.6 0 0.8-0.3-1.1 5.6-7.8 23.3-6 20-7 20-1-1-1 2 0 2 0 1-1-1-1 0-1 1-1 8 0 0.9 0 2.1-0.1-2.5-1 1.9l-1 5 1-2q0.8-0.8 0.9-2.7-0.1 8.6-0.9 27.7-1 25-4 36-3 11-3 9 0-3-1 0l-1 2c0 2 0 5.3 0 6q0 0 0 3 0 2 0 1-1 0-1 2-1 3 0 2 1-2 1 0 0 2-2 2-1 1-1 4 0 2-1 8-2 5-3 6-2 1-2 2 0 2-1 2-1 0-2 2-2 2-6 6-4 5-9 9-2.7 1.4-8.4 2.3-0.2-0.1-0.6-0.3-0.8 0-0.9 0.6-6.4 0.9-16.1 1.4-20 1-25-1-6-1-6-2 0-1-4-2-3-2-8-8-4-6-6-11-2-6 0-21 0.8-5.6 1.3-8.7 0.7 0.9 0.7 1.7 0 1 1-1 0-2-1-2-0.3 0-0.5 0.1 0.5-3.1 0.5-2.1 0 1 1-5 1-5 0-5-1 1 0-24v-25h1l1 1h-1v7l2-6c0-3.3 0-10.3 0-11q0-1 0-1-1-1 0-9 0-9 1-9 1 1 1 0 1-1 0-1-1 0 0-5 0-5 1-11 0-7 1-7 1 1 1-1 1-2 0-1-1 1 1-9 0-11 2-24 1-13-12-15-12-3-19-6-7-3-7-4 0-1 0-1-1-1-1-2 0-1-1-1-1-1-4-4-1.8-1.8-3.3-4.8 0.5 0.4 1.3 0.8 2 1 2 0 0-1-2-2-1.7-0.9-2-0.2-0.5-1.3-1-2.8-1-5-2-11 0-5 0-7-1-1 1-6 2-5 6-11 5-7 6-10 0-3 10-17 10-14 11-19 1-6-1-12-2-6-4-11 0-6 0-7 0-1-1-1-1-1-1-2 0-1 1-1 1 0 1-1 0-1-1-1-1 1-1-3-1-4 0-4 1 0 1-2-1-1-2 0-1 0-1-2 0-3 1-3 1 0 1-1 0-1-2 0-1 0-1-4 0-5 1-5 2 0 2-3 0-2-2-2-1 0-1-2 1-1 2-2 1-2 1-3 0-2 1-2 1 0 1-1 0-1-1-1-1 0 5-13 6-12 7-11 1 1 1-1 0-2 1-6 1-4 2-5 2-1 1-1-1 0 2-9 4-8 6-12 2-4 2-7 1-4 2-4 0-1-1-1-1 0-1-1 1-2 2-1 0 1 1-1 0-2-1-2-1 0 0-2 0-3 1-3 1 0 2-2 1-2 1-16 0-14-3-19-3-4-6-6-3-2-9-7-5-4-6-8-2-4-2-3 0 1-1 0-1-1-2-2-2-2-4-4-2-3-3-3-1-1-1-3-1-2-1-2-1 0-6-7-4-7-3-7 1 0-1-1-1-1-6-12-5-11-6-11-1 0-2-2 0-3 0-4 1 0 1-1-1-1-2-1-1 1-5-10-4-12-6-19-1-7-1-8 1-1-1-1-1 1-1 0 0-2 1-2 1 0 0-2 0-2-1 0-1 1-1-2-2-2-2-9-2-7-2-6 0 1-1 0-1-1-1-9l-2-9 1 3 1 2c0-2 0-15.3 0-32v-25l-2 6 2-7q0-7 7-22 3-5.9 5-9.9 1 1.9 2-0.1 0-1-1-1-0.2 0-0.4 0.1 2.4-4.5 3.4-6.1 2-3 10-9 7-6 10-8 2 0 1-1-1-1 1-2 1-1 2-1zm-6 8q0-1-1-1 0 1 0 1 1 0 1 0zm-2 2q0-1-1-1 0 1 0 1 1 0 1 0zm-6 3q0 1 1 1 1 0 1-1 0-1-1-1-1 0-1 1zm-2 3q0 0-1 0 0 0 0 1 1 0 1-1zm-2 2q0 0-1 0 0 0 0 1 1 0 1-1zm-6 5q0 1 1 1 1 0 1-1 0-1-1-1-1 0-1 1zm-3.4 4.1q-0.3 0.5-0.6 1 0-0.1 0-0.1 0-0.8 0.6-0.9zm-4.6 12.9q0 2 2-2 2-4 1-5 0-1-2 2-1 3-1 5zm-2 4q0 0-1 0 0 0 0 1 1 0 1-1zm-2 6q0-1-1-1 0 1 0 1 1 0 1 0zm218 60l-0.2-0.2q0.2 0.5 0.2 0.2zm-0.2-0.2q-0.5-1.1-1.8-5.8-2-6-2-4 0 2 1 5l1 3zm3.2 14.2q1 1 1-1 0-2-1-3-1-1-1 1 0 2 1 3zm3 6q-2-4 0 4 0-2 0-4zm-216 29q-2-2 0 3 0-1.7 0-3zm2 13q0 1 1 1 0 1 0 1 1 0-1-4 0 1 0 2zm227 18q1 0 1-1 0-1-1-1-1 0-1 1 0 1 1 1zm7 6q3 1 3 0-1-1-4-2-3-2-3-1 0 1 4 3zm8 5q1 0 1-1 0-1-1-1-1 0-1 1 0 1 1 1zm4 2q1-1 0-1-2-1-2 0 0 1 2 1zm4 1q0 0-1 0 0 0 0 1 1 0 1-1zm-233 4q1 0 0-2-1-1-1 0 0 2 1 2zm237 1q2-1 0-1-1-1-1 0 0 1 1 1zm-235 3q0 0 0 1 1 0 1-1 0-2-1-2 0 0 0-1-1 0-1 1 0 2 1 2zm239-2q0-1-1-1 0 1 0 1 1 0 1 0zm2 0q0 0-1 0 0 0 0 1 1 0 1-1zm4 4q1 0 0-1-2-1-2 0 0 1 2 1zm4 2q1 0 0-1-2-1-2 0 0 1 2 1zm-246 0q0 0-1 0 0 0 0 1 1 0 1-1zm252 5q1 0 1-1 0-1-1-1-1 0-1 1 0 1 1 1zm-246 9q1 0 0-2 0-2-2-4-2-1 0 2 1 4 2 4zm253-5q1 0 1-1 0-1-1-1-1 0-1 1 0 1 1 1zm3 1q0-1-1-1 0 1 0 1 1 0 1 0zm10 4q0 0-1 0 0 0 0 1 1 0 1-1zm-264 3q1 0 1-1 0-1-1-1-1 0-1 1 0 1 1 1zm266.9-1.6q-0.3-0.2-0.6-0.4 0.4 0.1 0.6 0.4zm6.1 6.6q2 1 2 0-1-1-2-2-2-1-2 0 1 1 2 2zm7 4q1 1 1 0-1-1-2-2-1 0-1 1 0 1 2 1zm10 10q2 1 2 0 0-1-2-2-2-1-2 0 0 1 2 2zm6 5q2 1 2 0 0-1-2-2-2-1-2 0 0 1 2 2zm-272 3q1 0 1-1 0-1-1-1-1 0-1 1 0 1 1 1zm278 2q0-1-1-1 0 1 0 1 1 0 1 0zm-269 3q0-1-1-1-2 0 0 1 1 1 1 0zm277 5q0-1-1-1 0 1 0 1 1 0 1 0zm6 5q1 0 1-1 0-1-1-1-1 0-1 1 0 1 1 1zm-274 4q0-2-1-2-1 0 0 9l1 9c0-4.6 0-14.6 0-16zm286 7q1 1 1 0-1-1-2-2-1 0-1 1 0 1 2 1zm-294 74q-4 12-10 24-6 11-6 26 0 16 2 19 0 3 1 5l1 2v3h1v1h3v-1q0 0 2-2 0-2 8-34 8-32 8-45 0-13 0-14l-2-2-2 3q-2 3-6 15zm-8-8q1 0 2-5 2-5-1 0-2 5-1 5zm-4 7q0 2 1 1 1-1 1-2 0-1-1-1-1 0-1 2zm329 11q1 3 1-1 0-4-1-4-1 0-1 1 0 1 1 4zm-335 4q0 1 1 1 1 0 1-1 0-1-1-1-1 0-1 1zm-4 8q-1 3 0 3 1 0 2-3 0-2-1-2-1 0-1 2zm142 60q-6 14-9 19-3 5-1 12 0 7 8 34 6 27 13 33 6 6 15 12 10 6 20 9 9 3 18 2 9-1 14-3 4-2 8-9 4-7 11-23 7-16 7-32 0-15 4-24 2-8 2-14-2-5-8-26-8-21-12-26-4-6-12-8-8-4-19-4-11-2-19 1-8 2-12 5-2 3-2 8 0 5 6 19 6 14 12 14 5-1 7-1c1.4 0 13.7 0 17 0l2 1 1 1h1v2h-8l-6 1q-6 1-11 4-5 4-5 7-2 4 0 8 0 4 1 8l1 3v1l-2 4h-4l-2-2v-4q0-3-1-6-1-2-4-8-3-6-11-8l-7-4h-4v-1h-1v-2h1v-1c4 0 17.4 0 20 0v-1h1v-5q0-2-5-10l-5-9v-1h-7v1h-1l-3 5q-3 5-9 18zm203-48q0-2-1-2-1 0 0 6 0 6 2 15v-7q0-11-1-12zm-345 56q0 0 0-1 0 0-1 0 0 1 1 1zm4 14q0-5-2-7 0-2 0 5 2 7 2 2zm-4 12q2-1 2-4 0-2-1 1-2 3-1 3zm338 9q0 3 1 0 1-3 0-3-1 0-1 3zm-236 16q-10 14-14 25-4 11-9 19-5 8-11 15-6 6-19 11-13 5-15 11-2 6-6 48-4 42-5 72-1 29-1 48 0 19 1 21 1 3 11 6 9 3 18 4 10 1 18-5 8-4 12-9 4-5 8-14 4-10 6-26 2-16 4-39 0-24 2-35 2-11 14-45 10-35 12-44 2-8 4-22 0-15-3-30-3-14-6-21-2-7-5-7-2 0-3 1-1 2-13 16zm-112-11q0 0 0-1 0 0-1 0 0 1 1 1zm-2 2q1 0 1-1-1 0-1 0 0 1 0 1zm346 5q0-1 1-1 0 0-1-1-1 0-1 1 1 2 1 1zm-350 0q0 1 1 1 1 0 1-1 0-1-1-1-1 0-1 1zm-2 3q0 1 1 1 1 0 1-1 0-1-1-1-1 0-1 1zm348 8q0 0-1 0 0 0 0 1 1 0 1-1zm-352 2q1 0 1-1-1 0-1 0 0 1 0 1zm-4 4q0 1 1 0 1 0 2-1 0-1-1-1-1 0-2 2zm-3 5q0 1 1 1 1 0 1-1 0-1-1-1-1 0-1 1zm273 23q-2 5-1 5 1 0 3-5 1-5 2-5 2-1 1-1-1-1-2 0-1 0-3 6zm8 0q1 0 1-1-1 0-1 0 0 1 0 1zm2 2q0 0 0-1 0 0-1 0 0 1 1 1zm65.4 3.3q0.3-2.5 0.4-4 0.2 0.3 0.2 0.7 0 1.6-0.6 3.3zm-349.3 3.5q0.3 0.7 0.6 1.4-0.7-0.6-0.7-1.2 0-0.1 0.1-0.2zm347.9-0.8q0 0-1 0 0 0 0 1 1 0 1-1zm-169 2q0-1-1-1-2 1 0 1 1 1 1 0zm112 2q2 1 2 0-1-1-2-2-2-1-2 0 1 1 2 2zm53 4q-2 5-1 5 1 0 2-5 1-5-1 0zm-164-4q1 0 1-1-1 0-1 0 0 1 0 1zm-175 3q1 0 1-1 0-1-1-1-1 0-1 1 0 1 1 1zm180 1q1 0 1-1 0-1-2-1-1-1-1 0 1 1 2 2zm109 0q1 0 1-1-1 0-1 0 0 1 0 1zm-102 4q1 0 1-1-1 0-1 0 0 1 0 1zm109 2q1 0 1-1 0-1-1-1-1 0-1 1 0 1 1 1zm-104 1q1 0 1-1 0-1-1-1-1 0-1 1 0 1 1 1zm-182 2q1 0 1-1 0-1-1-1-1 0-1 1 0 1 1 1zm290 1q1 0 1-1 0-1-1-1-1 0-1 1 0 1 1 1zm-287 0q0 0 0-1 0 0-1 0 0 1 1 1zm320 1q-1 1 0 1 2-1 2-2 0-1-1-1-1 1-1 2zm-316 1q2 0 0-1-3-1-3 0 0 1 3 1zm186 0q0 0 0-1 0 0-1 0 0 1 1 1zm46 0q1 0 1-1-1 0-1 0 0 1 0 1zm58 1q2 1 0-1-3-1-3 0 0 1 3 1zm-61 0q0 1 1 1 1 0 1-1 0-1-1-1-1 0-1 1zm82.4 1.9q0.8-0.2 1.6-0.6-0.2 0.7-1 0.7-0.3 0-0.6-0.1zm-297.4 1.1q4 0 2-1-3-1-6-1-2 0 0 1 1 1 4 1zm190 0q9 2 14 1 4-1 6-1h1l1-1q2-1-2 0l-4 1c-2.3 0-14.3 0-16 0zm90.6-0.7q1.8 0.3 3.8 0.5 0.3 0.1 0.6 0.2-0.5 0-1 0-1.7 0-3.4-0.7zm-266.6 19.7q1 0 1-1-1-2-1 0-1 1 0 1zm113.8 7.7q0.2-0.7 0.2-1.2 0 0.2 0 0.5 0 0.5-0.2 0.7zm-117.8 19.3q1 0 1-1-1 0-1 0 0 1 0 1zm108 4q1 0 1-1-1 0-1 0 0 1 0 1zm0 2q0 0 0-1 0 0-1 0 0 1 1 1zm-110 11v-1q0 0.5 0 1 0 0 0 0zm0 0q-2 9-1 9 1-0.9 1-9zm102 22.3q0-1.2 0-2.2 0 0.4 0 0.9 0 0.7 0 1.3zm-4 14.7c0 10 0 36 0 38l1-2q1-3 1-12c0-6.6 0-25 0-33l-1 5zm-104 17q0 2 1-1 0-3-1-3-1 0-1 1 1 1 1 3zm1 17q1 2 1-2 0-5-1-3-1 2 0 5zm99 18q0 2 1 0 1-1 1-4 0-2-1 0-1 1-1 4zm-102.5 12.1q-0.1 0.6-0.2 1.2-0.1-0.1-0.3-0.3 0-0.7 0.5-0.9zm-1.5 15.9q1 0 1-1-1 0-1 0 0 1 0 1zm2 14q0-4-1-6-1-1-1 2v2l1 2q1 3 1 0zm4 10q1 0 1-1 0-1-1-1-1 0-1 1 0 1 1 1zm69 10q1 0 5-6 5-5 1-2l-3 3-2 3q-2 2-1 2zm-66-7q1-1-1-1-1-1 0 1 1 1 1 0zm7 5q0-1-2-1-1 1 0 1 2 1 2 0zm4 4q-0.6 0 2.7 0.5-1.3-0.5-2.7-0.5zm2.7 0.5q0.7 0.2 1.3 0.5 1 1 4 1 4 0 6 0 1 0-7-1-2.6-0.3-4.3-0.5zm42.3 1.5q0 1 1 0 1.7 0 0.6-0.7-0.7 0.2-1.5 0.3-0.1 0.2-0.1 0.4zm-123-740q0-1 0 2 0 2 0 0 0-1 0-2zm4 92q0 0 0-1 0-1 0 1zm224 12v-10 34-8q0-7 0-16zm2 29q0-1 0-1 0 1 0 1zm2 1q0 0 0-1 0-1 0 1zm18 12q0 0 0-1 0-1 0 1zm-218 17q0-1 0-1 0 1 0 1zm256 7q0 0 0-1 0-1 0 1zm2 1q0-1 0-1 0 1 0 1zm20 11q0 0 0-1 0-1 0 1zm-264 5q0-1 0-1 0 1 0 1zm272 1q0 0 0-1 0-1 0 1zm-256 17q0-1 0-1 0 1 0 1zm8 7q0 0 0-1 0-1 0 1zm284 8q0 0 0-1 0-1 0 1zm-275 42q1 0 1 0-1 0-1 0zm-22 62q1 0 1 0-1 0-1 0zm-1 2q0 0 1 0 1 0-1 0zm342 87q0 0 0 3 0 3 0 1 0-2 0-3 0-2 0-2 0 0 0 1zm-2 8q0-1 0-1 0 1 0 1zm-356 21q0 0 1 0 1 0-1 0zm-13 22q1 0 1 0-1 0-1 0zm-5 24q0 0 1 0 1 0-1 0zm196 22q0 0 1 0 1 0-1 0zm113 6q1 0 1 0-1 0-1 0zm-98 2q1 0 1 0-1 0-1 0zm-41 10q0 0 1 0 1 0-1 0zm-7 22q1 0 1 0-1 0-1 0zm-11 34q0 0 1 0 1 0-1 0zm-10 82q0 0 1 0 1 0-1 0zm-12 48q0 0 1 0 1 0-1 0zm-90 8q0 0 1 0 1 0-1 0zm68 14q0 0 1 0 1 0-1 0zm-3 2q1 0 1 0-1 0-1 0z"/></svg>